# xmcd
#
# Track frame offsets:
#	150
#	18020
#	38803
#	58801
#	74349
#	92982
#	110450
#	135076
#	155044
#	171719
#	191670
#	211503
#	230991
#
# Disc length: 3285 seconds
#
# Revision: 0
# Processed by: cddbd v1.5.1PL2 Copyright (c) Steve Scherf et al.
# Submitted via: audiograbber 1.83.01
#
DISCID=b60cd30d
DTITLE=The Jeff Healey Band - Get me some
DYEAR=2000
DGENRE=Blues-Rock
TTITLE0=Which one
TTITLE1=Hey hey
TTITLE2=Love is the Answer
TTITLE3=My Life Story
TTITLE4=I tried
TTITLE5=The Damage is done
TTITLE6=Feel better
TTITLE7=Holding on
TTITLE8=I should have told you
TTITLE9=Macon Georgia Blue
TTITLE10=House is burning down
TTITLE11=Runaway Heart
TTITLE12=Rachel´s Song
EXTD=
EXTT0=
EXTT1=
EXTT2=
EXTT3=
EXTT4=
EXTT5=
EXTT6=
EXTT7=
EXTT8=
EXTT9=
EXTT10=
EXTT11=
EXTT12=
PLAYORDER=
